<?xml version="1.0" encoding="utf-8"?><svg width="148" height="147" viewBox="0 0 148 147" xmlns="http://www.w3.org/2000/svg" xmlns:xlink="http://www.w3.org/1999/xlink"><svg height="21" width="28" viewBox="-2 -2 28 21" id="addresses-next" x="42" y="43"><path fill="#fff" fill-rule="evenodd" d="M23.67 7.41L16.53.5a1.13 1.13 0 0 0-1.58 0c-.43.42-.43 1.1 0 1.52l5.24 5.07H1.12C.5 7.09 0 7.57 0 8.17c0 .59.5 1.08 1.12 1.08h19.07l-5.24 5.06a1.07 1.07 0 0 0 0 1.53 1.137 1.137 0 0 0 1.58 0l7.14-6.91c.44-.42.44-1.1 0-1.52zm0 0"/></svg><svg height="21" width="28" viewBox="-2 -2 28 21" id="addresses-prev" x="70" y="43"><path d="M.33 7.41L7.47.5a1.13 1.13 0 0 1 1.58 0c.43.42.43 1.1 0 1.52L3.81 7.09h19.07c.62 0 1.12.48 1.12 1.08 0 .59-.5 1.08-1.12 1.08H3.81l5.24 5.06c.43.43.43 1.11 0 1.53a1.137 1.137 0 0 1-1.58 0L.33 8.93a1.04 1.04 0 0 1 0-1.52zm0 0" fill="#fff" fill-rule="evenodd"/></svg><svg height="20" width="11" viewBox="-2 -2 11 20" id="catalog-item-socials-fb" x="20" y="126"><path fill="#3b5998" fill-rule="evenodd" d="M1.53 3.09v2.2H.02v2.69h1.51v7.99h3.09V7.98h2.07s.19-1.29.29-2.7H4.63V3.44c0-.27.33-.64.67-.64h1.68V0H4.69C1.45 0 1.53 2.69 1.53 3.09zm0 0"/></svg><svg height="18" width="21" viewBox="-2 -2 21 18" id="catalog-item-socials-twt" x="98" y="64"><path fill="#4099ff" fill-rule="evenodd" d="M16.96 1.68c-.62.28-1.29.47-1.99.56.71-.44 1.26-1.13 1.53-1.95-.68.4-1.42.69-2.22.85A3.448 3.448 0 0 0 11.74.03c-1.92 0-3.48 1.58-3.48 3.53 0 .27.04.54.09.8C5.46 4.21 2.9 2.81 1.18.67.88 1.19.71 1.8.71 2.45c0 1.22.62 2.3 1.55 2.93a3.4 3.4 0 0 1-1.58-.44v.04c0 1.71 1.2 3.14 2.79 3.46-.29.08-.6.13-.91.13-.23 0-.45-.02-.66-.07.44 1.41 1.73 2.43 3.25 2.45A6.893 6.893 0 0 1 0 12.41 9.68 9.68 0 0 0 5.33 14c6.41 0 9.91-5.38 9.91-10.04l-.02-.45c.69-.5 1.28-1.12 1.74-1.83zm0 0"/></svg><svg height="13" width="21" viewBox="-2 -2 21 13" id="catalog-item-socials-vk" x="84" y="94"><path fill="#45668e" fill-rule="evenodd" d="M15.97 7.43c-.47-.59-.88-.97-1.46-1.49-.27-.24-.61-.5-.63-.84-.03-.44.42-.88.63-1.16.03-.04.06-.08.1-.12.01-.02.02-.03.03-.05l.06-.06c.01-.02.03-.05.05-.07l.03-.03c.02-.03.04-.06.07-.09.41-.5.8-.95 1.2-1.58.13-.21.55-.97.41-1.27-.17-.36-1.14-.22-1.69-.22-.66 0-1.38-.13-1.83.04-.3.11-.47.7-.64 1.05-.24.51-.45.92-.7 1.32-.02.02-.04.05-.05.08l-.02.02c-.01.03-.03.05-.05.08 0 .01-.01.01-.01.02-.03.05-.07.1-.1.15l-.02.02c-.02.02-.03.04-.04.06-.02.02-.03.04-.04.06l-.04.04c-.02.03-.03.05-.05.07-.01.02-.02.03-.03.04-.03.04-.06.08-.08.11-.24.3-.46.69-.87.73-.01-.01-.03-.02-.04-.03-.01-.01-.01-.01-.02-.01-.01-.01-.01-.02-.02-.03-.01 0-.01-.01-.02-.01l-.02-.02-.02-.02c0-.01-.01-.01-.02-.02 0-.01-.01-.01-.01-.02-.01-.01-.02-.01-.02-.02-.01-.01-.01-.01-.01-.02l-.02-.02c0-.01-.01-.02-.01-.02-.01-.01-.01-.02-.02-.03 0 0-.01-.01-.01-.02s-.01-.02-.02-.03v-.01c-.01-.02-.02-.03-.02-.05 0 0 0-.01-.01-.01 0-.01-.01-.03-.01-.04 0-.01 0-.01-.01-.02 0-.01 0-.02-.01-.03v-.02c-.01-.01-.01-.02-.01-.03 0-.01 0-.02-.01-.03v-.03s-.01-.01-.01-.02V3.7c0-.01-.01-.02-.01-.03v-.03-.02c-.01-.02-.01-.03-.01-.04v-.02-.05-.01c-.01-.02-.01-.04-.01-.06v-.01-.05c0-.01-.01-.02-.01-.02 0-.02-.01-.03-.01-.04v-.07c0-.01.01-.01.01-.02s0-.03.01-.04v-.03-.04-.02-.04-.03c.01-.01.01-.03.01-.04v-.02c0-.07 0-.15.01-.23v-.02c0-.08.01-.16.01-.23.02-.67.22-1.55-.08-2.04-.29-.48-1.34-.4-2.09-.4-.9 0-1.64.05-1.91.58.32.19.64.2.82.51.18.32.2 1.04.19 1.65v.1c-.02.55-.05 1.41-.42 1.49-.37.07-.69-.48-.89-.77a.71.71 0 0 1-.1-.14c-.01-.01-.02-.02-.03-.04-.03-.03-.05-.07-.07-.1-.01-.01-.02-.03-.03-.04a.673.673 0 0 1-.07-.11l-.03-.03c-.03-.05-.06-.09-.08-.13-.3-.45-.56-.91-.83-1.48-.17-.35-.39-.91-.6-1.02C3.25.35 2.49.45 2 .45 1.42.45.85.36.5.63c0 .59.32 1.12.56 1.6.34.66.68 1.3 1.06 1.91.01.03.03.06.05.09.04.07.08.14.13.21l.06.09c.04.07.09.14.13.21l.06.09c.06.09.13.19.19.29.07.09.13.19.2.28.02.03.04.06.06.08.05.07.1.14.14.2.03.03.05.07.08.1.04.06.09.13.14.19.03.03.05.06.07.09.07.09.14.19.22.28.97 1.2 2.07 2.32 4.23 2.54.69.07 1.68.14 1.91-.25.29-.49-.05-1.64.64-1.75.49-.07.89.61 1.16.9.47.51 1.02 1.06 1.84 1.22h.07c.73-.31 2.88.32 3-.57.03-.28-.35-.78-.53-1zm0 0"/></svg><svg height="19" width="21" viewBox="-2 -2 21 19" id="login" x="63" y="94"><path fill-rule="evenodd" d="M5.7 0v1.45h9v12.1h-9V15h10.5V0H5.7zm2.06 5.43c-.04.02-.06.06-.06.13v1.21H.2v1.46h7.5v1.21c0 .14.1.18.2.09l2.6-1.88c.1-.1.1-.2 0-.3L7.9 5.47c-.05-.04-.1-.06-.14-.04zm0 0"/></svg><svg height="19" width="21" viewBox="-2 -2 21 19" id="login-hover" x="42" y="94"><path fill="#e61235" fill-rule="evenodd" d="M5.7 0v1.45h9v12.1h-9V15h10.5V0H5.7zm2.06 5.43c-.04.02-.06.06-.06.13v1.21H.2v1.46h7.5v1.21c0 .14.1.18.2.09l2.6-1.88c.1-.1.1-.2 0-.3L7.9 5.47c-.05-.04-.1-.06-.14-.04zm0 0"/></svg><svg height="17" width="16" viewBox="-2 -2 16 17" id="nav-collapse" x="103" y="126"><path fill="#030104" opacity=".2" fill-rule="evenodd" d="M6 .7c-3.31 0-6 2.69-6 6s2.69 6 6 6 6-2.69 6-6-2.69-6-6-6zm3 6.75H3v-1.5h6v1.5zm0 0"/></svg><svg height="17" width="16" viewBox="-2 -2 16 17" id="nav-expand" x="87" y="126"><path opacity=".2" fill-rule="evenodd" d="M6 .7c-3.3 0-6 2.7-6 6s2.7 6 6 6 6-2.7 6-6-2.7-6-6-6zm3 6.6H6.6v2.4H5.4V7.3H3V6.1h2.4V3.7h1.2v2.4H9v1.2zm0 0"/></svg><svg height="21" width="20" viewBox="-2 -2 20 21" id="remaining" y="126"><path fill-opacity=".898" fill="#b2b2b2" fill-rule="evenodd" d="M8 .3c-4.4 0-8 3.6-8 8s3.6 8 8 8 8-3.6 8-8-3.6-8-8-8zm0 14.4c-3.52 0-6.4-2.88-6.4-6.4 0-3.52 2.88-6.4 6.4-6.4 3.52 0 6.4 2.88 6.4 6.4 0 3.52-2.88 6.4-6.4 6.4zm0 0"/><path fill-opacity=".898" fill="#b2b2b2" fill-rule="evenodd" d="M8.4 4.3H7.2v4.8l4.16 2.56.64-1.04-3.6-2.16V4.3zm0 0"/></svg><svg height="20" width="18" viewBox="-2 -2 18 20" id="star" x="51" y="126"><path stroke="#dcdcdc" fill="#fff" fill-rule="evenodd" d="M7 11.95l4.33 2.75-1.15-5.18L14 6.04l-5.03-.46L7 .7 5.03 5.58 0 6.04l3.82 3.48-1.15 5.18L7 11.95zm0 0"/></svg><svg height="30" width="28" viewBox="-2 -2 28 30" id="star-big" x="42" y="64"><path stroke="#c8c8c8" fill="#fff" fill-rule="evenodd" d="M12 19.89l7.42 4.71-1.97-8.88L24 9.75l-8.63-.78L12 .6 8.63 8.97 0 9.75l6.55 5.97-1.97 8.88L12 19.89zm0 0"/></svg><svg height="19" width="18" viewBox="-2 -2 18 19" id="star-full" x="69" y="126"><path fill="#eeca0a" fill-rule="evenodd" d="M7 11.95l4.33 2.75-1.15-5.18L14 6.04l-5.03-.46L7 .7 5.03 5.58 0 6.04l3.82 3.48-1.15 5.18L7 11.95zm0 0"/></svg><svg height="28" width="28" viewBox="-2 -2 28 28" id="star-full-big" x="70" y="64"><path fill="#eeca0a" fill-rule="evenodd" d="M12 19.29L19.42 24l-1.97-8.88L24 9.15l-8.63-.78L12 0 8.63 8.37 0 9.15l6.55 5.97L4.58 24 12 19.29zm0 0"/></svg><svg height="62" width="42" viewBox="-2 -2 42 62" id="tip-arr-auth" y="64"><path stroke-width="3" stroke="#fcc548" fill="none" d="M.2 56.47s31.82-3.59 31.82-52.2M28.26 8.86l4.03-5.62 3.67 5.22"/></svg><svg height="64" width="42" viewBox="-2 -2 42 64" id="tip-arr-item"><path d="M-1.132 2.27s31.82 3.59 31.82 52.2M26.237 50.65l4.69 6.54 4.27-6.07" fill="none" stroke="#fcc548" stroke-width="3"/></svg><svg height="43" width="64" viewBox="-2 -2 64 43" id="tip-arr-nav" x="42"><path d="M58.21 38.28S54.62 6.46 6.01 6.46M9.92 10.91L3.43 6.25 9.45 2" fill="none" stroke="#fcc548" stroke-width="3"/></svg><svg height="63" width="42" viewBox="-2 -2 42 63" id="tip-arr-search" x="106"><path stroke-width="3" stroke="#fcc548" fill="none" d="M.2 57.47s31.82-3.59 31.82-52.2M27 9.86l4.69-6.53 4.27 6.06"/></svg><svg height="17" width="21" viewBox="-2 -2 21 17" id="tip-check" x="119" y="64"><path fill-rule="evenodd" d="M16.5 3.76l-8.93 8.7c-.67.65-1.74.65-2.4 0L.56 7.97c-.67-.64-.67-1.69 0-2.33.66-.65 1.73-.65 2.39-.01l3.42 3.33 7.74-7.54c.66-.64 1.73-.64 2.39 0 .67.65.67 1.69 0 2.34zm0 0"/></svg><svg height="20" width="20" viewBox="-2 -2 20 20" id="tip-cross" x="31" y="126"><path fill="#fcc548" fill-rule="evenodd" d="M15.43 3.15l-4.82 4.83 4.82 4.84a1.847 1.847 0 0 1-1.3 3.15c-.47 0-.94-.18-1.3-.54l-4.82-4.84-4.83 4.84a1.833 1.833 0 0 1-2.6 0c-.71-.72-.71-1.89 0-2.61l4.83-4.84L.58 3.15c-.71-.72-.71-1.89 0-2.61.72-.72 1.88-.72 2.6 0l4.83 4.84L12.83.54c.72-.72 1.88-.72 2.6 0 .72.72.72 1.89 0 2.61zm0 0"/></svg></svg>