<?xml version="1.0" encoding="utf-8"?><svg width="76" height="68" viewBox="0 0 76 68" xmlns="http://www.w3.org/2000/svg" xmlns:xlink="http://www.w3.org/1999/xlink"><svg height="19" width="21" viewBox="-2 -2 21 19" id="login" y="30"><path fill-rule="evenodd" d="M5.7 0v1.45h9v12.1h-9V15h10.5V0H5.7zm2.06 5.43c-.04.02-.06.06-.06.13v1.21H.2v1.46h7.5v1.21c0 .14.1.18.2.09l2.6-1.88c.1-.1.1-.2 0-.3L7.9 5.47c-.05-.04-.1-.06-.14-.04zm0 0"/></svg><svg height="19" width="21" viewBox="-2 -2 21 19" id="login-hover" x="21" y="30"><path fill="#e61235" fill-rule="evenodd" d="M5.7 0v1.45h9v12.1h-9V15h10.5V0H5.7zm2.06 5.43c-.04.02-.06.06-.06.13v1.21H.2v1.46h7.5v1.21c0 .14.1.18.2.09l2.6-1.88c.1-.1.1-.2 0-.3L7.9 5.47c-.05-.04-.1-.06-.14-.04zm0 0"/></svg><svg height="17" width="16" viewBox="-2 -2 16 17" id="nav-collapse" x="18" y="49"><path fill="#030104" opacity=".2" fill-rule="evenodd" d="M6 .7c-3.31 0-6 2.69-6 6s2.69 6 6 6 6-2.69 6-6-2.69-6-6-6zm3 6.75H3v-1.5h6v1.5zm0 0"/></svg><svg height="17" width="16" viewBox="-2 -2 16 17" id="nav-expand" x="34" y="49"><path opacity=".2" fill-rule="evenodd" d="M6 .7c-3.3 0-6 2.7-6 6s2.7 6 6 6 6-2.7 6-6-2.7-6-6-6zm3 6.6H6.6v2.4H5.4V7.3H3V6.1h2.4V3.7h1.2v2.4H9v1.2zm0 0"/></svg><svg height="21" width="20" viewBox="-2 -2 20 21" id="remaining" x="56"><path fill-opacity=".898" fill="#b2b2b2" fill-rule="evenodd" d="M8 .3c-4.4 0-8 3.6-8 8s3.6 8 8 8 8-3.6 8-8-3.6-8-8-8zm0 14.4c-3.52 0-6.4-2.88-6.4-6.4 0-3.52 2.88-6.4 6.4-6.4 3.52 0 6.4 2.88 6.4 6.4 0 3.52-2.88 6.4-6.4 6.4zm0 0"/><path fill-opacity=".898" fill="#b2b2b2" fill-rule="evenodd" d="M8.4 4.3H7.2v4.8l4.16 2.56.64-1.04-3.6-2.16V4.3zm0 0"/></svg><svg height="20" width="18" viewBox="-2 -2 18 20" id="star" x="56" y="21"><path stroke="#dcdcdc" fill="#fff" fill-rule="evenodd" d="M7 11.95l4.33 2.75-1.15-5.18L14 6.04l-5.03-.46L7 .7 5.03 5.58 0 6.04l3.82 3.48-1.15 5.18L7 11.95zm0 0"/></svg><svg height="30" width="28" viewBox="-2 -2 28 30" id="star-big"><path stroke="#c8c8c8" fill="#fff" fill-rule="evenodd" d="M12 19.89l7.42 4.71-1.97-8.88L24 9.75l-8.63-.78L12 .6 8.63 8.97 0 9.75l6.55 5.97-1.97 8.88L12 19.89zm0 0"/></svg><svg height="19" width="18" viewBox="-2 -2 18 19" id="star-full" y="49"><path fill="#eeca0a" fill-rule="evenodd" d="M7 11.95l4.33 2.75-1.15-5.18L14 6.04l-5.03-.46L7 .7 5.03 5.58 0 6.04l3.82 3.48-1.15 5.18L7 11.95zm0 0"/></svg><svg height="28" width="28" viewBox="-2 -2 28 28" id="star-full-big" x="28"><path fill="#eeca0a" fill-rule="evenodd" d="M12 19.29L19.42 24l-1.97-8.88L24 9.15l-8.63-.78L12 0 8.63 8.37 0 9.15l6.55 5.97L4.58 24 12 19.29zm0 0"/></svg></svg>